<svg height="512" viewBox="0 0 64 64" width="512" xmlns="http://www.w3.org/2000/svg"><g id="Filled_outline" data-name="Filled outline"><path d="m3 3h58v4h-58z" fill="#394d5c"/><path d="m48 55v-48h-32v48l-4 6h40z" fill="#7d8d9c"/><path d="m25 32h14v8h-14z" fill="#f98c96"/><path d="m24 40h2v5h-2z" fill="#cfdfe8"/><path d="m25.294 55h-2.294v-2h1.706l13.294-8.546v-4.454h2v5.546z" fill="#aabece"/><path d="m22 39h5v2h-5z" fill="#db527d"/><path d="m37 39h5v2h-5z" fill="#db527d"/><path d="m41 55h-2.294l-14.247-9.159 1.082-1.682 13.753 8.841h1.706z" fill="#cfdfe8"/><path d="m16 21h4v14h-4z" fill="#f4f4e6"/><path d="m16 35-6-4v-6l6-4z" fill="#394d5c"/><path d="m6 25h4v6h-4z" fill="#506b7c"/><path d="m5 31h2v20h-2z" fill="#32b1cc"/><path d="m8.063 58.351-2.063-5.503-2.063 5.5-1.874-.7 3-8a1 1 0 0 1 1.874 0l3 8z" fill="#32b1cc"/><path d="m3 49h6v2h-6z" fill="#195c85"/><path d="m39.379 16.429h4.243v14.142h-4.243z" fill="#f4f4e6" transform="matrix(.707 -.707 .707 .707 -4.462 36.228)"/><path d="m38 17h8l2 2v8z" fill="#394d5c"/><path d="m46.379 15.5h4.243v2h-4.243z" fill="#1f7d89" transform="matrix(.707 -.707 .707 .707 2.538 39.127)"/><path d="m52.5 7.893h2v21.213h-2z" fill="#32b1cc" transform="matrix(.707 -.707 .707 .707 2.588 43.249)"/><path d="m54 20h2v35h-2z" fill="#1f7d89"/><path d="m60.052 55.316-2.773-8.316h-4.479l-1.825 8.217-1.954-.434 2-9a1 1 0 0 1 .979-.783h6a1 1 0 0 1 .948.684l3 9z" fill="#32b1cc"/><path d="m55 52a1 1 0 0 1 -.447-.1l-4-2 .894-1.79 3.553 1.772 3.553-1.777.894 1.79-4 2a1 1 0 0 1 -.447.105z" fill="#195c85"/><g fill="#cfdfe8"><path d="m19 56h2v2h-2z"/><path d="m43 55h2v2h-2z"/><path d="m22 7h2v11h-2z"/><path d="m27 7h2v5h-2z"/><path d="m36 7h2v7h-2z"/></g><path d="m22 44h20v2h-20z" fill="#f98c96"/><path d="m2 2v6h13v12.465l-5.3 3.535h-3.7a1 1 0 0 0 -1 1v24h-2v2h1.557l-2.494 6.649 1.874.7 2.063-5.501 2.063 5.5 1.874-.7-2.494-6.648h1.557v-2h-2v-17h2.7l5.3 3.535v19.165l-3.832 5.748a1 1 0 0 0 .832 1.552h40a1 1 0 0 0 .832-1.555l-3.769-5.653 1.914.425 1.023-4.6 2 1v3.383h2v-3.382l2.416-1.208 1.636 4.906 1.9-.632-3-9a1 1 0 0 0 -.952-.684h-2v-22.586l4.293 4.293 1.414-1.414-12.707-12.707v-4.586h13v-6zm15 20h2v12h-2zm-10 4h2v4h-2zm4-.465 4-2.666v10.262l-4-2.666zm41.445 23.065.355-1.6h1.2v2.382zm4.834-1.6.5 1.493-1.779.889v-2.382zm-3.279-2h-2a1 1 0 0 0 -.977.783l-1.991 8.962-.032-.045v-37.286l1-1 4 4zm-16-26.586 8.586 8.586-1.586 1.586-8.586-8.586zm9 1v5.172l-6.586-6.586h5.172zm0-8.828-.293-.293-1.414 1.414 1.707 1.707v3.172l-.293-.293a1 1 0 0 0 -.707-.293h-8a1 1 0 0 0 -.34.066.913.913 0 0 0 -.089.043 2.066 2.066 0 0 0 -.278.184l-3 3a1 1 0 0 0 0 1.414l10 10a1 1 0 0 0 1.414 0l1.293-1.293v25.586a1.006 1.006 0 0 0 .168.555l2.964 4.445h-36.264l2.964-4.445a1.006 1.006 0 0 0 .168-.555v-19h3a1 1 0 0 0 1-1v-14a1 1 0 0 0 -1-1h-3v-12h5v10h2v-10h3v4h2v-4h7v6h2v-6h9zm13-4.586h-56v-2h56z"/><path d="m24 39h-2v2h2v3h-2v2h2.706l5.445 3.5-5.445 3.5h-1.706v2h2.294l6.706-4.311 6.706 4.311h2.294v-2h-1.706l-5.445-3.5 5.445-3.5h2.706v-2h-2v-3h2v-2h-2v-8h-16zm8 9.311-3.595-2.311h7.195zm6-4.311h-12v-3h12zm-12-11h12v6h-12z"/><path d="m19 56h2v2h-2z"/><path d="m43 55h2v2h-2z"/></g></svg>