<?xml version="1.0" encoding="iso-8859-1"?>
<!-- Generator: Adobe Illustrator 19.0.0, SVG Export Plug-In . SVG Version: 6.00 Build 0)  -->
<svg version="1.1" id="Capa_1" xmlns="http://www.w3.org/2000/svg" xmlns:xlink="http://www.w3.org/1999/xlink" x="0px" y="0px"
	 viewBox="0 0 511.999 511.999" style="enable-background:new 0 0 511.999 511.999;" xml:space="preserve">
<path style="fill:#73553A;" d="M149.428,159.276c-3.721-7.411-12.728-10.385-20.125-6.708l-59.994,29.997
	c-4.111,2.05-8.29,7.681-8.29,13.417v104.99c0,8.29,6.708,14.999,14.999,14.999s14.999-6.708,14.999-14.999v-95.719l51.704-25.852
	C150.131,175.696,153.133,166.687,149.428,159.276z"/>
<path style="fill:#59422D;" d="M442.691,182.565l-59.994-29.997c-7.411-3.677-16.404-0.703-20.125,6.708
	c-3.706,7.411-0.703,16.419,6.708,20.125l51.704,25.852v95.719c0,8.29,6.708,14.999,14.999,14.999
	c8.29,0,14.999-6.708,14.999-14.999v-104.99C450.981,190.249,446.854,184.641,442.691,182.565z"/>
<path style="fill:#896748;" d="M384.988,484.954c6.6,5.099,8.1,14.398,3.001,20.998c-5.101,6.598-14.4,8.1-20.998,2.999
	l-110.99-84.391l-110.99,84.391c-6.598,5.101-15.898,3.6-20.998-2.999c-5.099-6.6-3.6-15.9,3.001-20.998l104.087-78.992
	l-104.089-77.994c-6.6-5.099-8.1-14.398-3.001-20.997c5.101-6.6,14.4-7.799,20.998-3.001l110.99,83.393l110.99-83.393
	c6.598-5.099,15.897-3.6,20.998,3.001c5.099,6.598,3.6,15.898-3.001,20.997l-104.088,77.994L384.988,484.954z"/>
<path d="M375.988,59.994H136.011c-8.29,0-14.999-6.708-14.999-14.999s6.708-14.999,14.999-14.999h239.978
	c8.29,0,14.999,6.708,14.999,14.999S384.279,59.994,375.988,59.994z"/>
<path style="fill:#896748;" d="M136.011,300.972c-8.29,0-14.999-6.708-14.999-14.999V14.999c0-8.29,6.708-14.999,14.999-14.999
	s14.999,6.708,14.999,14.999v270.975C151.01,294.263,144.301,300.972,136.011,300.972z"/>
<path style="fill:#73553A;" d="M375.988,300.972c-8.29,0-14.999-6.708-14.999-14.999V14.999C360.99,6.708,367.698,0,375.988,0
	c8.29,0,14.999,6.708,14.999,14.999v270.975C390.987,294.263,384.279,300.972,375.988,300.972z"/>
<g>
	<path style="fill:#FF4588;" d="M450.981,300.972c0,16.498-13.499,29.997-29.997,29.997H91.015
		c-16.498,0-29.997-13.499-29.997-29.997c0-16.498,13.499-29.997,29.997-29.997h329.969
		C437.483,270.975,450.981,284.473,450.981,300.972z"/>
	<rect x="121.008" y="29.997" style="fill:#FF4588;" width="269.975" height="120.989"/>
</g>
<path style="fill:#73553A;" d="M384.988,484.954c6.6,5.099,8.1,14.398,3.001,20.998c-5.101,6.598-14.4,8.1-20.998,2.999
	l-110.99-84.391v-37.197l110.99-83.393c6.598-5.099,15.897-3.6,20.998,3.001c5.099,6.598,3.6,15.898-3.001,20.997l-104.09,77.995
	L384.988,484.954z"/>
<g>
	<rect x="255.996" y="29.997" style="fill:#FC1A60;" width="134.987" height="120.989"/>
	<path style="fill:#FC1A60;" d="M450.981,300.972c0,16.498-13.499,29.997-29.997,29.997H256v-59.994h164.985
		C437.483,270.975,450.981,284.473,450.981,300.972z"/>
</g>
<g>
</g>
<g>
</g>
<g>
</g>
<g>
</g>
<g>
</g>
<g>
</g>
<g>
</g>
<g>
</g>
<g>
</g>
<g>
</g>
<g>
</g>
<g>
</g>
<g>
</g>
<g>
</g>
<g>
</g>
</svg>
